<?xml version="1.0" encoding="UTF-8" standalone="no"?>
<svg
   xmlns:dc="http://purl.org/dc/elements/1.1/"
   xmlns:cc="http://creativecommons.org/ns#"
   xmlns:rdf="http://www.w3.org/1999/02/22-rdf-syntax-ns#"
   xmlns:svg="http://www.w3.org/2000/svg"
   xmlns="http://www.w3.org/2000/svg"
   width="400"
   height="400"
   viewBox="0 0 105.83333 105.83334"
   version="1.1"
   id="svg993">
  <defs
     id="defs987">
    <linearGradient
       id="linear-gradient"
       x1="192.42"
       y1="-2160.8401"
       x2="111.48"
       y2="-2220.0801"
       gradientTransform="matrix(0.26458334,0,0,-0.26458334,0,-526.8754)"
       gradientUnits="userSpaceOnUse">
      <stop
         offset="0.18"
         stop-color="#fff"
         stop-opacity="0.4"
         id="stop942" />
      <stop
         offset="1"
         stop-color="#fff"
         id="stop944" />
    </linearGradient>
  </defs>
  <metadata
     id="metadata990">
    <rdf:RDF>
      <cc:Work
         rdf:about="">
        <dc:format>image/svg+xml</dc:format>
        <dc:type
           rdf:resource="http://purl.org/dc/dcmitype/StillImage" />
        <dc:title></dc:title>
      </cc:Work>
    </rdf:RDF>
  </metadata>
  <g
     id="layer1">
    <rect
       class="cls-1"
       width="105.83334"
       height="105.83334"
       id="rect951"
       style="fill:#0052cc;stroke-width:0.264583"
       x="0"
       y="-8.50586e-06" />
    <path
       class="cls-2"
       d="m 42.24073,32.742179 v 7.858125 c 0,10.879667 -5.458354,15.08125 -12.401021,15.71625 a 1.42875,1.42875 0 0 0 -1.285875,1.42875 v 12.858751 a 1.42875,1.42875 0 0 0 1.426104,1.431395 h 0.08202 C 47.450376,71.149096 57.922584,58.462325 57.922584,42.711679 h 0.05027 v -9.9695 z"
       id="path953"
       style="fill:url(#linear-gradient);stroke-width:0.264583" />
    <path
       class="cls-3"
       d="M 77.128689,69.966409 58.721626,32.742179 H 42.24073 l 19.444229,38.123813 a 2.143125,2.143125 0 0 0 1.907646,1.164167 H 75.86398 a 1.42875,1.42875 0 0 0 1.264709,-2.06375 z"
       id="path955"
       style="fill:#ffffff;stroke-width:0.264583" />
  </g>
</svg>
